<svg width="28" height="28" viewBox="0 0 28 28" fill="none" xmlns="http://www.w3.org/2000/svg">
<path fill-rule="evenodd" clip-rule="evenodd" d="M19.0488 18.0608C21.7308 14.8556 21.5685 10.0708 18.5622 7.05671C15.3834 3.86977 10.2292 3.86977 7.05036 7.05671C3.87254 10.2427 3.87254 15.4073 7.05036 18.5932C10.0743 21.6242 14.8858 21.7719 18.0839 19.0363L22.1615 23.1308C22.4289 23.3993 22.8633 23.4002 23.1317 23.1328C23.4002 22.8655 23.4011 22.4311 23.1337 22.1626L19.0488 18.0608ZM17.5908 8.02567C14.9481 5.37621 10.6645 5.37621 8.0218 8.02567C5.37814 10.6761 5.37814 14.9738 8.02174 17.6242C10.6644 20.2731 14.9481 20.2731 17.5908 17.6243C20.2344 14.9738 20.2344 10.6761 17.5908 8.02567Z" fill="#605C72"/>
</svg>
