<svg width="17" height="20" viewBox="0 0 17 20" fill="none" xmlns="http://www.w3.org/2000/svg">
<path d="M14.4608 4.50894C13.4108 3.80651 12.6529 2.68262 12.4164 1.37246C12.3654 1.0894 12.3373 0.798072 12.3373 0.5H8.98587L8.9805 14.28C8.92415 15.8231 7.68623 17.0616 6.16866 17.0616C5.69699 17.0616 5.25286 16.9406 4.86182 16.7295C3.96511 16.2454 3.35144 15.281 3.35144 14.1713C3.35144 12.5775 4.6153 11.2808 6.16866 11.2808C6.45863 11.2808 6.73679 11.3299 6.99991 11.4145V7.90424C6.72761 7.8662 6.45095 7.84242 6.16866 7.84242C2.76719 7.84242 0 10.6816 0 14.1713C0 16.3124 1.04269 18.2072 2.63344 19.353C3.63542 20.0747 4.85421 20.5 6.16866 20.5C9.57012 20.5 12.3373 17.661 12.3373 14.1713V7.18367C13.6518 8.15161 15.2622 8.722 17 8.722V5.2836C16.0639 5.2836 15.192 4.99808 14.4608 4.50894Z" fill="white"/>
</svg>
