<svg width="27" height="26" viewBox="0 0 27 26" fill="none" xmlns="http://www.w3.org/2000/svg">
<path d="M13.555 0.298401C6.35068 0.298401 0.487621 5.94554 0.485081 12.8857C0.483387 15.1051 1.08629 17.2711 2.22944 19.1789L0.375 25.7016L7.30415 23.9513C9.23159 24.9596 11.3747 25.4855 13.55 25.484H13.555C20.7594 25.484 26.6225 19.836 26.625 12.8959C26.6267 9.53417 25.2685 6.36977 22.8001 3.99118C20.3326 1.61175 17.0514 0.299248 13.555 0.298401ZM13.555 23.3578H13.5508C11.6015 23.3578 9.68952 22.8531 8.02137 21.8996L7.62339 21.6727L3.51315 22.7108L4.61056 18.8495L4.3523 18.4541C3.2675 16.7996 2.69002 14.8641 2.69093 12.8857C2.69347 7.11663 7.5675 2.42465 13.5593 2.42465C16.4603 2.4255 19.1878 3.5153 21.2395 5.49251C23.2912 7.46973 24.42 10.099 24.4183 12.895C24.4158 18.6641 19.5426 23.3578 13.5542 23.3578H13.555ZM19.5138 15.5209C19.1869 15.3642 17.5815 14.603 17.2817 14.4971C16.9828 14.393 16.7652 14.3388 16.5475 14.6538C16.3308 14.9688 15.7042 15.6775 15.5145 15.8867C15.3231 16.0967 15.1326 16.1221 14.8057 15.9654C14.4789 15.8079 13.4263 15.476 12.1799 14.404C11.2086 13.5707 10.5532 12.5411 10.3627 12.2252C10.1722 11.9111 10.3424 11.7409 10.5058 11.5842C10.6523 11.4445 10.8327 11.2176 10.9952 11.0338C11.1578 10.8501 11.212 10.7188 11.3221 10.5088C11.4305 10.2997 11.3763 10.1151 11.2942 9.9584C11.212 9.80005 10.56 8.25215 10.2865 7.623C10.0223 7.00993 9.75302 7.09207 9.55234 7.08191C9.36181 7.07344 9.14504 7.0709 8.92572 7.0709C8.7098 7.0709 8.355 7.14965 8.05524 7.46465C7.75633 7.77965 6.9121 8.54005 6.9121 10.088C6.9121 11.6367 8.08234 13.1321 8.24577 13.3421C8.40919 13.5513 10.549 16.7292 13.8252 18.0925C14.6042 18.4151 15.2122 18.609 15.6872 18.7547C16.4696 18.9943 17.1818 18.9596 17.744 18.8792C18.3706 18.7886 19.6764 18.1188 19.9473 17.3846C20.22 16.6505 20.22 16.0205 20.1387 15.8892C20.0591 15.758 19.8406 15.6792 19.5138 15.5209Z" fill="#6A003B"/>
</svg>
