<svg width="27" height="20" viewBox="0 0 27 20" fill="none" xmlns="http://www.w3.org/2000/svg">
<path d="M22.093 1.65789C20.4206 0.890525 18.6272 0.325164 16.7521 0.00135833C16.7179 -0.00489103 16.6838 0.0107264 16.6662 0.0419621C16.4356 0.452184 16.1801 0.987351 16.0012 1.40799C13.9844 1.10606 11.978 1.10606 10.0025 1.40799C9.8236 0.978001 9.5588 0.452184 9.3272 0.0419621C9.3096 0.0117686 9.2754 -0.00384884 9.2413 0.00135833C7.36723 0.324129 5.57385 0.88949 3.90042 1.65789C3.88593 1.66414 3.87351 1.67456 3.86527 1.68808C0.46359 6.77013 -0.468276 11.7273 -0.0111346 16.6229C-0.00906656 16.6469 0.00437948 16.6698 0.0229995 16.6843C2.26733 18.3325 4.44135 19.3331 6.575 19.9964C6.60915 20.0068 6.64533 19.9943 6.66706 19.9662C7.17177 19.2769 7.62168 18.5502 8.00743 17.7859C8.0302 17.7412 8.00847 17.688 7.96194 17.6703C7.24831 17.3996 6.56879 17.0696 5.91514 16.6948C5.86344 16.6646 5.8593 16.5906 5.90686 16.5552C6.04441 16.4521 6.182 16.3449 6.31335 16.2366C6.33711 16.2168 6.37022 16.2127 6.39816 16.2252C10.6924 18.1857 15.3413 18.1857 19.5849 16.2252C19.6128 16.2116 19.6459 16.2158 19.6707 16.2356C19.8021 16.3439 19.9397 16.4521 20.0783 16.5552C20.1258 16.5906 20.1227 16.6646 20.071 16.6948C19.4174 17.0769 18.7378 17.3996 18.0232 17.6693C17.9766 17.687 17.9559 17.7412 17.9787 17.7859C18.3727 18.5491 18.8227 19.2759 19.3181 19.9651C19.3388 19.9943 19.376 20.0068 19.4101 19.9964C21.5541 19.3331 23.7281 18.3325 25.9724 16.6843C25.9921 16.6698 26.0045 16.6479 26.0066 16.624C26.5537 10.964 25.0902 6.04755 22.1271 1.68912C22.1198 1.67456 22.1075 1.66414 22.093 1.65789ZM8.6487 13.642C7.35585 13.642 6.29058 12.455 6.29058 10.9974C6.29058 9.53969 7.33519 8.35275 8.6487 8.35275C9.9725 8.35275 11.0275 9.55011 11.0068 10.9974C11.0068 12.455 9.9622 13.642 8.6487 13.642ZM17.3675 13.642C16.0746 13.642 15.0094 12.455 15.0094 10.9974C15.0094 9.53969 16.0539 8.35275 17.3675 8.35275C18.6913 8.35275 19.7462 9.55011 19.7256 10.9974C19.7256 12.455 18.6913 13.642 17.3675 13.642Z" fill="#6A003B"/>
</svg>
